PathFileType	4	(x/y/z)	S05_M20_T01
DataRate	CameraRate	NumFrames	NumMarkers	Units	OrigDataRate	OrigDataStartFrame	OrigNumFrames
240	240	5	50	mm	240	203	541
Frame#	Time	Sternum			R.Acromium			L.Acromium			Top.Head			R.ASIS			L.ASIS			R.PSIS			L.PSIS			R.Great.Tro			L.Great.Tro			R.Iliac.Crest			L.Iliac.Crest			V.Sacral			R.Thigh.Upper.Post			R.Thigh.Lower.Ant			R.Thigh.Lower.Post			R.Thigh.Upper.Ant			R.Knee.Lat			R.Knee.Med			R.Shank.Upper.Post			R.Shank.Lower.Ant			R.Shank.Lower.Post			R.Shank.Upper.Ant			R.Ankle.Lat			R.Ankle.Med			R.Heel.Upper			R.Heel.Med			R.Heel.Lat			R.Toe.Lat			R.Toe.Med			R.Toe.Tip			L.Thigh.Upper.Post			L.Thigh.Lower.Ant			L.Thigh.Lower.Post			L.Thigh.Upper.Ant			L.Knee.Lat			L.Shank.Upper.Post			L.Shank.Lower.Ant			L.Shank.Lower.Post			L.Shank.Upper.Ant			L.Ankle.Lat			L.Ankle.Med			L.Heel.Upper			L.Heel.Med			L.Heel.Lat			L.Toe.Lat			L.Toe.Med			L.Toe.Tip			Cervical.Spine			Back			
		X1	Y1	Z1	X2	Y2	Z2	X3	Y3	Z3	X4	Y4	Z4	X5	Y5	Z5	X6	Y6	Z6	X7	Y7	Z7	X8	Y8	Z8	X9	Y9	Z9	X10	Y10	Z10	X11	Y11	Z11	X12	Y12	Z12	X13	Y13	Z13	X14	Y14	Z14	X15	Y15	Z15	X16	Y16	Z16	X17	Y17	Z17	X18	Y18	Z18	X19	Y19	Z19	X20	Y20	Z20	X21	Y21	Z21	X22	Y22	Z22	X23	Y23	Z23	X24	Y24	Z24	X25	Y25	Z25	X26	Y26	Z26	X27	Y27	Z27	X28	Y28	Z28	X29	Y29	Z29	X30	Y30	Z30	X31	Y31	Z31	X32	Y32	Z32	X33	Y33	Z33	X34	Y34	Z34	X35	Y35	Z35	X36	Y36	Z36	X37	Y37	Z37	X38	Y38	Z38	X39	Y39	Z39	X40	Y40	Z40	X41	Y41	Z41	X42	Y42	Z42	X43	Y43	Z43	X44	Y44	Z44	X45	Y45	Z45	X46	Y46	Z46	X47	Y47	Z47	X48	Y48	Z48	X49	Y49	Z49	X50	Y50	Z50	

203	0.84167	291.24	1231.2	332.35	207.71	1477.2	517.86	186.28	1516.5	182.05	177.02	1789.5	361.93	243.14	971.86	438.61	210.89	974.71	191.46	31.174	997.16	380.46	22.848	1004.1	288.91	175.33	898.13	512.93	96.154	905.89	129.54	159.15	1053.5	494.11	121.62	1060.5	159.77	13.374	965.62	347.56	305.34	700.23	504.11	369.15	652.07	440.07	321.83	613.87	480.47	348.03	736.5	463.67	344.73	526.97	463.46	345.65	514.33	332.2	319.39	274.74	450.58	393.32	222.98	448.8	333.02	200.95	433.17	379.1	298.25	464.96	391.5	121.13	432.11	409.94	148.62	346.46	340.41	71.962	364.28	353.41	41.085	335.68	346.78	42.714	401.09	509.28	39.825	461.84	549.24	54.545	346.36	608.36	77.541	395.17	39.715	673.61	128.66	102.04	582.36	131.15	30.167	578.81	137.71	117.72	671.96	119.41	10.147	494.71	138.3	-169.77	400.91	164.79	-168.18	312.34	159.81	-219.55	352.7	189.68	-120.61	362.16	142.2	-298.73	239.69	199.1	-250.68	214.82	274.93	-356.06	251.72	264.85	-362.97	228.1	299.07	-382.61	235.39	240.27	-305.15	85.807	160.58	-259.06	70.349	270.48	-224.81	40.731	208.86	134.62	1531.9	362.25	24.27	1252.8	341.65
204	0.84583	296.9	1232.5	333.15	213.35	1478.4	518.85	192.01	1517.9	183.12	182.78	1790.8	363.15	248.6	973.17	439.46	216.6	975.77	192.27	36.643	998.37	381.02	28.398	1005	289.4	180.58	899.44	513.7	102.47	906.2	130.19	164.7	1054.9	494.8	127.21	1061.4	160.39	18.915	966.68	348.19	309.71	700.86	505.06	373.33	652.35	441.12	325.71	614.42	481.39	352.68	736.89	464.73	348.16	527.35	464.34	349.1	514.79	333.08	321.07	275.22	451.18	394.61	222.96	449.29	334.18	201.35	433.63	380.93	298.3	465.61	392.07	121.1	432.39	410.6	148.72	346.84	340.59	72.15	364.52	353.52	41.344	335.82	346.91	42.786	401.22	509.53	39.247	461.88	549.39	53.995	346.26	608.73	76.502	395.1	48.965	672.95	128.35	112.39	582.43	130.75	40.545	578	137.14	127.03	672.28	119.37	21.465	494.17	137.6	-159.24	403.11	164.95	-158.92	314.49	159.9	-209.62	355.61	189.99	-110.73	363.66	142.15	-290.41	244.17	199.7	-242.35	218.3	275.23	-346.79	257.64	265.88	-354.1	234.15	300.18	-373.97	241.9	241.45	-300.51	90.154	161.24	-253.84	73.609	270.63	-220.92	41.936	208.64	140.26	1533.2	363.28	30.005	1254	342.41
205	0.85	302.49	1233.9	333.9	218.97	1479.6	519.81	197.65	1519.4	184.15	188.52	1792	364.35	254.02	974.48	440.29	222.24	976.86	193.06	42.061	999.58	381.6	33.886	1005.8	289.93	185.77	900.74	514.46	108.73	906.53	130.84	170.24	1056.3	495.47	132.73	1062.2	161.01	24.405	967.73	348.86	313.99	701.46	505.98	377.42	652.6	442.13	329.5	614.94	482.28	357.25	737.26	465.75	351.46	527.71	465.19	352.48	515.24	333.92	322.63	275.69	451.67	395.78	222.93	449.72	335.24	201.76	433.99	382.61	298.34	466.19	392.56	121.07	432.61	411.2	148.84	347.17	340.74	72.302	364.73	353.61	41.564	335.94	347.01	42.842	401.34	509.73	38.759	461.92	549.51	53.531	346.16	609.03	75.606	395.02	58.264	672.35	128.06	122.81	582.59	130.36	50.993	577.26	136.61	136.37	672.67	119.33	32.899	493.69	136.94	-148.52	405.36	165.1	-149.47	316.7	160.02	-199.51	358.56	190.29	-100.66	365.23	142.13	-281.84	248.68	200.3	-233.81	221.88	275.58	-337.36	263.47	266.91	-345.03	240.11	301.27	-365.11	248.3	242.61	-295.39	94.631	161.9	-248.2	77.042	270.82	-216.54	43.416	208.46	145.87	1534.4	364.28	35.69	1255.3	343.2
206	0.85417	308.03	1235.2	334.62	224.55	1480.9	520.74	203.21	1520.8	185.15	194.24	1793.3	365.53	259.38	975.77	441.1	227.82	977.96	193.83	47.427	1000.8	382.2	39.311	1006.6	290.48	190.92	902.02	515.22	114.93	906.9	131.51	175.77	1057.7	496.14	138.16	1063.1	161.64	29.843	968.77	349.55	318.19	702.04	506.88	381.42	652.83	443.1	333.21	615.45	483.14	361.73	737.6	466.75	354.66	528.04	466	355.78	515.67	334.73	324.08	276.16	452.05	396.83	222.9	450.11	336.21	202.15	434.25	384.16	298.37	466.71	392.99	121.06	432.79	411.74	148.95	347.44	340.85	72.424	364.91	353.68	41.751	336.04	347.09	42.885	401.45	509.91	38.349	461.96	549.59	53.145	346.06	609.28	74.839	394.94	67.603	671.83	127.8	133.26	582.85	129.99	61.499	576.61	136.13	145.74	673.14	119.3	44.433	493.3	136.31	-137.65	407.66	165.25	-139.83	318.97	160.16	-189.22	361.55	190.57	-90.425	366.85	142.14	-273.04	253.22	200.9	-225.09	225.53	275.97	-327.78	269.2	267.91	-335.79	245.95	302.34	-356.05	254.58	243.73	-289.79	99.208	162.56	-242.13	80.629	271.05	-211.65	45.18	208.33	151.43	1535.7	365.26	41.326	1256.5	344.01
207	0.85833	313.52	1236.5	335.3	230.1	1482.1	521.64	208.68	1522.3	186.12	199.93	1794.6	366.67	264.69	977.04	441.9	233.34	979.08	194.59	52.743	1002	382.82	44.676	1007.4	291.05	196.01	903.29	515.98	121.08	907.31	132.17	181.26	1059.1	496.79	143.52	1063.9	162.27	35.228	969.8	350.25	322.31	702.6	507.74	385.33	653.04	444.04	336.83	615.94	483.96	366.12	737.92	467.7	357.74	528.35	466.78	359	516.11	335.5	325.43	276.61	452.32	397.78	222.86	450.45	337.1	202.54	434.43	385.58	298.4	467.17	393.36	121.06	432.93	412.24	149.07	347.67	340.93	72.521	365.06	353.73	41.908	336.13	347.15	42.918	401.54	510.04	38.01	461.99	549.65	52.829	345.97	609.47	74.19	394.87	76.973	671.37	127.57	143.75	583.21	129.66	72.05	576.04	135.69	155.12	673.7	119.29	56.053	493.01	135.73	-126.63	409.99	165.4	-130.01	321.3	160.31	-178.77	364.58	190.84	-80.028	368.53	142.17	-264.01	257.77	201.51	-216.17	229.26	276.39	-318.08	274.81	268.9	-326.39	251.67	303.38	-346.8	260.69	244.82	-283.69	103.86	163.22	-235.64	84.35	271.31	-206.25	47.225	208.27	156.95	1536.9	366.22	46.912	1257.8	344.83
